# xmcd CD database file generated by Grip 2.7
# 
# Track frame offsets:
#       150
#       26270
#       42530
#       62140
#       74775
#       83370
#       100642
#       121640
#       144332
#       161195
#       177047
#       194542
# 
# Disc length: 2744 seconds
# 
# Revision: 3
# Processed by: cddbd v1.4b41PL1 Copyright (c) Steve Scherf et al.
# Submitted via: Grip 2.7
# 
DISCID=9c0ab60c
DTITLE=The Rockingbirds - The Rockingbirds
DYEAR=1900
DGENRE=
TTITLE0=Gradually Learning
TTITLE1=Further Down The Line
TTITLE2=Standing At The Doorstep Of Love
TTITLE3=Jonathan Jonathan
TTITLE4=The Day My Life Begins
TTITLE5=Searching
TTITLE6=Restless
TTITLE7=Time Drives The Truck
TTITLE8=Halfway To Comatose
TTITLE9=In All Buildings
TTITLE10=Only One Flower
TTITLE11=Drifting
EXTD=
EXTT0=
EXTT1=
EXTT2=
EXTT3=
EXTT4=
EXTT5=
EXTT6=
EXTT7=
EXTT8=
EXTT9=
EXTT10=
EXTT11=
PLAYORDER=
